<?xml version="1.0" encoding="UTF-8"?>
<svg width="17px" height="17.55px" viewBox="0 0 20 21" version="1.1" xmlns="http://www.w3.org/2000/svg" xmlns:xlink="http://www.w3.org/1999/xlink">
    <title>Merchi</title>
    <desc>Merchi icon</desc>
    <defs></defs>
    <g stroke="none" stroke-width="1" fill="none" fill-rule="evenodd">
        <g id="white-merchi" fill="#D0D0D0" fill-rule="nonzero">
            <path d="M19.9083871,9.7883871 C20.0193548,10.2090323 20.0683871,10.7496774 19.7664516,11.1096774 C19.356129,11.6025806 18.7174194,11.4167742 18.2348387,11.1651613 C18.1832258,11.4335484 18.12,11.7058065 18.043871,11.963871 C17.8956879,12.4892259 17.6828787,12.99416 17.4103226,13.4670968 C17.276148,13.6959128 17.1247425,13.9141783 16.9574194,14.12 C16.8653763,14.2335484 16.768172,14.3427957 16.6658065,14.4477419 C16.5813672,14.5463325 16.5323154,14.6703246 16.5264516,14.8 C16.4374194,15.356129 16.4787097,15.9264516 16.3974194,16.4851613 C16.3369071,17.0200024 16.1941489,17.5422884 15.9741935,18.0335484 C15.763871,18.4619355 15.4051613,18.8322581 14.916129,18.9096774 C14.4567742,18.9819355 14.0812903,18.7174194 13.8670968,18.3303226 C13.6335484,17.9019355 13.6012903,17.4090323 13.4580645,16.9509677 C13.4077607,16.7554143 13.3147828,16.5734245 13.1858065,16.4180645 C12.7741935,15.9870968 10.7987097,16.556129 10.7987097,16.556129 L10.7987097,16.563871 C10.6085592,17.0650228 10.4680997,17.5836422 10.3793548,18.1122581 C10.356129,18.2645161 10.3303226,18.4219355 10.3006452,18.5793548 C10.1535484,19.356129 9.88129032,20.1432258 9.09677419,20.4580645 C8.67480342,20.6370965 8.18700088,20.5511624 7.8516129,20.2387097 C7.48129032,19.8967742 7.32258065,19.4077419 7.17290323,18.9419355 C7.17290323,18.9419355 6.64387097,17.1625806 5.85935484,16.6335484 C5.07483871,16.1045161 3.27870968,15.156129 2.23612903,12.2916129 C2.2116246,12.2237779 2.19939077,12.1521227 2.2,12.08 C1.33032258,12.8774194 0.707096774,12.7251613 0.707096774,12.7251613 C0.575873338,12.7079848 0.452534416,12.6528187 0.352258065,12.5664516 C0.00129032258,12.2683871 -0.0167741935,11.7251613 0.0632258065,11.3070968 C0.402580645,9.32516129 2.61677419,7.4683871 2.65548387,7.43612903 L2.67483871,7.39483871 C3.25548387,5.37032258 5.18709677,0.56 10.5225806,0.0593548387 C18.1148387,-0.652903226 18.5806452,5.27354839 18.5329032,7.13935484 C18.5909677,7.22193548 18.6490323,7.30322581 18.7058065,7.38580645 C18.8735484,7.6283871 19.036129,7.87096774 19.1858065,8.12903226 C19.5018242,8.64629197 19.7449763,9.20467334 19.9083871,9.7883871 Z M7.72258065,6.31096774 C8.12903226,7.22580645 9.04387097,7.66064516 10.0116129,7.6683871 C11.16,7.67741935 11.88,7.15225806 12.3703226,6.13290323 C12.5664516,5.72258065 11.9548387,5.35870968 11.756129,5.77419355 C11.3819355,6.5483871 10.8916129,6.97806452 10.0103226,6.95741935 C9.27225806,6.94064516 8.64258065,6.65419355 8.33290323,5.95225806 C8.15096774,5.53419355 7.53806452,5.89548387 7.72,6.31096774 L7.72258065,6.31096774 Z M12,10.4516129 C12.9032258,11.0529032 14.1148387,11.0051613 14.7277419,10.0464516 C14.9741935,9.65935484 14.36,9.30322581 14.1135484,9.68774194 C13.7083871,10.3212903 12.9174194,10.2116129 12.3587097,9.83870968 C11.9716129,9.58064516 11.6206452,10.2 12,10.4516129 Z M13.5948387,5.93548387 C13.9574194,6.56645161 14.6270968,7.07612903 15.4012903,6.96774194 C16.0892682,6.8695641 16.60056,6.28075382 16.6012903,5.58580645 C16.6012903,5.20516129 16.003871,5.19870968 16.0103226,5.58580645 C16.0099564,5.81247334 15.9139132,6.02845172 15.7458489,6.18054506 C15.5777845,6.33263839 15.3533199,6.40671016 15.1277419,6.38451613 C14.6696774,6.35354839 14.3290323,6.02064516 14.1122581,5.64258065 C13.9225806,5.31225806 13.4116129,5.61032258 13.596129,5.94064516 L13.5948387,5.93548387 Z" id="Combined-Shape"></path>
        </g>
    </g>
</svg>